<?xml version="1.0" encoding="UTF-8"?>
<svg width="29px" height="29px" viewBox="0 0 29 29" version="1.1" xmlns="http://www.w3.org/2000/svg" xmlns:xlink="http://www.w3.org/1999/xlink">
    <!-- Generator: Sketch 55.2 (78181) - https://sketchapp.com -->
    <title>Group 330</title>
    <desc>Created with Sketch.</desc>
    <defs>
        <path d="M27.8104286,13.9363799 C27.8104286,21.5834791 21.6114761,27.7825338 13.9645031,27.7825338 C6.3175301,27.7825338 0.118120953,21.5834791 0.118120953,13.9363799 C0.118120953,6.28928082 6.3175301,0.0902260933 13.9645031,0.0902260933 C21.6114761,0.0902260933 27.8104286,6.28928082 27.8104286,13.9363799" id="path-1"></path>
    </defs>
    <g id="Web-Wireframe-" stroke="none" stroke-width="1" fill="none" fill-rule="evenodd">
        <g id="Chat" transform="translate(-915.000000, -9.000000)">
            <g id="navigation">
                <g id="profile" transform="translate(914.000000, 9.000000)">
                    <g id="Group-330" transform="translate(15.236232, 14.774506) scale(-1, 1) rotate(2.000000) translate(-15.236232, -14.774506) translate(1.236232, 0.774506)">
                        <mask id="mask-2" fill="white">
                            <use xlink:href="#path-1"></use>
                        </mask>
                        <use id="Clip-325" fill="#CCD6F7" xlink:href="#path-1"></use>
                        <path d="M5.96421998,30.3447159 C7.70317355,30.2536052 9.43813055,30.0952673 11.1673147,29.8750094 C11.2148295,29.8683752 11.2721138,29.860414 11.3342827,29.8511261 C11.5096879,29.8250313 11.685093,29.799821 11.8596101,29.7732839 C12.2681487,29.7118064 12.6757992,29.6472328 13.0834497,29.5791209 C13.8978626,29.4428972 14.7104992,29.2942895 15.5204715,29.1341825 C16.2149872,28.9961896 16.9063944,28.8480242 17.5969135,28.6932245 C17.6528655,28.6565149 17.7097057,28.6206898 17.7656577,28.5830956 C17.8615755,28.5189643 18.6520089,28.0740259 18.6431276,27.9581472 C18.6466801,28.0085677 18.088492,28.415912 18.5325558,28.0271437 C18.6693274,27.9077268 18.8092075,27.7922905 18.9437588,27.6715467 C19.0867473,27.5432841 19.2270714,27.4119256 19.3638431,27.2783556 C19.2146377,27.1032108 19.0649882,26.9408923 18.9211115,26.80688 C18.1053665,26.0404005 16.2811526,24.2924911 16.2811526,24.2924911 L16.2736036,24.2849722 C16.1323913,24.1421142 13.8330293,21.8298495 13.0208367,21.1695183 C12.1828885,20.4883997 10.444379,19.8094926 10.2898448,19.7462459 C7.33859722,20.1801273 5.6320603,24.8493276 5.6320603,24.8493276 C5.6320603,24.8493276 5.06365873,27.3393908 5.90205105,30.1470146 C5.92158986,30.2120304 5.94290492,30.2783732 5.96421998,30.3447159" id="Fill-324" fill="#DB1B63" mask="url(#mask-2)"></path>
                        <path d="M15.7220764,17.0257523 C15.7220764,17.0257523 15.1989693,18.1279259 14.9307548,18.9925926 C14.1389892,17.4344234 14.1389892,15.8811193 14.1389892,15.8811193 C14.6363406,16.4989911 15.7220764,17.0257523 15.7220764,17.0257523" id="Fill-326" fill="#B06576" mask="url(#mask-2)"></path>
                        <path d="M5.10273634,22.4371064 C5.10273634,22.4371064 4.26478808,23.3959798 5.6320603,24.8493276 C5.6320603,24.8493276 7.33859722,20.1801273 10.2898448,19.7462459 C10.1330903,19.6847683 11.3755806,17.6440664 12.214417,16.0982811 C13.0528093,14.5502844 13.7975042,11.8302331 13.7046949,10.6537556 C13.6114415,9.47904722 16.2811526,6.26363693 16.7172232,4.71608252 C16.7172232,4.71608252 18.7963296,5.5210408 19.1395909,6.72715137 C19.4801878,7.93370423 19.6982231,9.07656808 19.6054137,9.32513212 C19.5117163,9.57192702 19.2324002,9.91160172 19.4184629,10.5927203 C19.6054137,11.2733965 19.293681,12.5095825 18.9530841,13.4370536 C18.6102669,14.3649671 18.2079452,15.4485648 18.0214384,16.1279142 C17.8349316,16.8085904 17.2758554,17.2115119 16.4991879,17.2115119 C15.7220764,17.2115119 15.7220764,17.0257523 15.7220764,17.0257523 C15.7220764,17.0257523 15.1989693,18.1279259 14.9307548,18.9925926 C14.8654775,19.2026779 14.8148542,19.3972832 14.7908748,19.5609286 C14.6678691,20.3955199 14.2952996,21.8466563 16.2736036,24.2849722 L16.2811526,24.2924911 C16.2811526,24.2924911 18.1053665,26.0404005 18.9211115,26.80688 C19.0649882,26.9408923 19.2146377,27.1032108 19.3638431,27.2783556 C19.760836,26.8917987 20.1342936,26.4848967 20.4957615,26.062957 L20.5632592,25.9842303 C20.6227637,25.9081573 20.6818242,25.8316421 20.7413288,25.7546845 C20.241313,25.4282784 19.8754045,25.0439329 19.8754045,25.0439329 C21.6938455,20.5905675 19.7595039,18.9925926 19.7595039,18.9925926 C21.1569724,17.2190307 20.380305,15.1703677 20.1320733,14.08677 C19.8842858,13.0049414 20.8776563,11.2733965 20.659177,7.8704575 C20.443362,4.46928761 16.778504,2.55242541 15.5995148,1.99028147 C14.4183053,1.42946438 13.5181881,2.02522197 13.5181881,2.02522197 C13.5181881,2.02522197 9.35819907,1.43875236 8.24049066,5.05752636 C7.12233819,8.67585807 7.43140654,10.6241225 5.97310125,12.9120616 C4.51435189,15.2000007 4.94864622,16.6847507 4.94864622,16.6847507 C4.94864622,16.6847507 3.58448244,17.4264623 4.88692136,19.1597763 C4.88692136,19.1597763 3.64398698,21.1381161 5.10273634,22.4371064" id="Fill-327" fill="#141831" mask="url(#mask-2)"></path>
                        <path d="M19.1395909,6.72715137 C19.4801878,7.93370423 19.697779,9.07656808 19.6054137,9.32513212 C19.5117163,9.57192702 19.2324002,9.91160172 19.4184629,10.5927203 C19.6054137,11.2733965 19.293681,12.5095825 18.9530841,13.4370536 C18.6102669,14.3649671 18.2079452,15.4485648 18.0214384,16.1279142 C17.8349316,16.8085904 17.2758554,17.2115119 16.4991879,17.2115119 C15.7220764,17.2115119 15.7220764,17.0257523 15.7220764,17.0257523 C15.7220764,17.0257523 14.6363406,16.4989911 14.1389892,15.8811193 C14.1389892,15.8811193 14.1389892,17.4344234 14.9307548,18.9925926 C14.8654775,19.2026779 14.8148542,19.3972832 14.7908748,19.5609286 C14.6678691,20.3955199 14.2952996,21.8466563 16.2736036,24.2849722 C16.1323913,24.1421142 13.8330293,21.8298495 13.0208367,21.1695183 C12.1828885,20.4883997 10.444379,19.8094926 10.2898448,19.7462459 C10.1330903,19.6847683 11.3755806,17.6440664 12.214417,16.0982811 C13.0528093,14.5502844 13.7979483,11.8302331 13.7046949,10.6537556 C13.6114415,9.47904722 16.2811526,6.26363693 16.7172232,4.71608252 C16.7172232,4.71608252 18.7963296,5.5210408 19.1395909,6.72715137" id="Fill-328" fill="#EA909C" mask="url(#mask-2)"></path>
                        <path d="M16.1479737,27.0088616 C15.9357112,26.3334928 15.7256691,25.6572394 15.5169591,24.980986 C15.4867628,24.8827987 15.3824078,24.8279554 15.2842697,24.8580308 C15.1856876,24.8881062 15.1306237,24.9920431 15.16082,25.089788 C15.36953,25.766926 15.5800162,26.4436217 15.7927227,27.1194328 C15.8233631,27.2171778 15.9277181,27.2720211 16.0258562,27.2410611 C16.1239943,27.2105435 16.1790582,27.1066066 16.1479737,27.0088616 L16.1479737,27.0088616" id="Fill-329" fill="#B90E4E" mask="url(#mask-2)"></path>
                    </g>
                </g>
            </g>
        </g>
    </g>
</svg>